<svg xmlns="http://www.w3.org/2000/svg" xmlns:xlink="http://www.w3.org/1999/xlink" width="500" zoomAndPan="magnify" viewBox="0 0 375 374.999991" height="500" preserveAspectRatio="xMidYMid meet" version="1.2"><defs><clipPath id="1acbaece69"><rect x="0" width="189" y="0" height="375"/></clipPath></defs><g id="8173e28c56"><g transform="matrix(1,0,0,1,82,0)"><g clip-path="url(#1acbaece69)"><g style="fill:#eda2c0;fill-opacity:1;"><g transform="translate(24.067344, 265.931214)"><path style="stroke:none" d="M 140.59375 -22.515625 C 142.238281 -20.046875 143.472656 -18.601562 144.296875 -18.1875 C 143.890625 -16.957031 144.046875 -15.828125 144.765625 -14.796875 C 145.484375 -13.773438 145.84375 -12.539062 145.84375 -11.09375 C 147.070312 -9.039062 147.894531 -7.296875 148.3125 -5.859375 C 149.332031 -1.953125 150.460938 0.613281 151.703125 1.84375 C 151.703125 4.101562 151.90625 6.160156 152.3125 8.015625 C 152.726562 9.867188 152.832031 11.925781 152.625 14.1875 C 151.1875 16.851562 150.3125 19.210938 150 21.265625 C 149.695312 23.328125 149.03125 24.972656 148 26.203125 C 148.207031 28.460938 147.796875 30.207031 146.765625 31.4375 C 145.734375 32.675781 145.015625 34.328125 144.609375 36.390625 C 143.578125 36.585938 142.859375 37.507812 142.453125 39.15625 C 140.804688 39.769531 139.625 40.796875 138.90625 42.234375 C 138.1875 43.679688 136.898438 44.609375 135.046875 45.015625 C 133.609375 46.867188 132.582031 48.101562 131.96875 48.71875 C 131.351562 49.332031 130.632812 49.847656 129.8125 50.265625 C 127.957031 52.523438 126.617188 53.910156 125.796875 54.421875 C 124.972656 54.929688 123.945312 55.394531 122.71875 55.8125 C 122.300781 56.832031 121.785156 57.5 121.171875 57.8125 C 120.554688 58.125 120.046875 58.789062 119.640625 59.8125 C 117.785156 61.25 116.445312 62.070312 115.625 62.28125 C 114.800781 62.488281 114.1875 63.109375 113.78125 64.140625 C 111.3125 65.578125 109.71875 66.601562 109 67.21875 C 108.28125 67.832031 107.507812 68.550781 106.6875 69.375 C 106.070312 69.988281 105.453125 70.398438 104.828125 70.609375 C 104.210938 70.816406 103.90625 71.226562 103.90625 71.84375 C 102.257812 71.84375 101.234375 72.664062 100.828125 74.3125 C 98.765625 74.925781 97.425781 75.234375 96.8125 75.234375 C 95.164062 76.265625 94.035156 76.984375 93.421875 77.390625 C 92.804688 77.804688 92.296875 78.320312 91.890625 78.9375 C 89.617188 80.582031 88.484375 81.300781 88.484375 81.09375 C 87.671875 81.914062 86.695312 82.53125 85.5625 82.9375 C 84.425781 83.351562 83.453125 83.972656 82.640625 84.796875 C 80.785156 85.617188 79.5 86.285156 78.78125 86.796875 C 78.0625 87.304688 77.492188 87.972656 77.078125 88.796875 C 74.410156 89.410156 72.972656 89.921875 72.765625 90.328125 C 72.554688 90.742188 72.144531 91.054688 71.53125 91.265625 C 68.863281 91.054688 67.015625 91.773438 65.984375 93.421875 C 65.367188 93.210938 64.75 93.265625 64.125 93.578125 C 63.507812 93.890625 62.789062 94.046875 61.96875 94.046875 C 59.300781 94.453125 57.757812 94.65625 57.34375 94.65625 C 56.320312 95.070312 55.347656 95.226562 54.421875 95.125 C 53.492188 95.019531 52.617188 95.273438 51.796875 95.890625 C 50.773438 95.273438 49.441406 95.273438 47.796875 95.890625 C 46.359375 96.304688 45.535156 96.460938 45.328125 96.359375 C 45.117188 96.253906 44.8125 96.203125 44.40625 96.203125 C 43.164062 95.992188 41.828125 95.992188 40.390625 96.203125 C 38.953125 96.410156 37.71875 96.410156 36.6875 96.203125 C 34.632812 95.585938 33.554688 95.226562 33.453125 95.125 C 33.347656 95.019531 33.09375 94.757812 32.6875 94.34375 C 32.070312 94.757812 31.398438 94.863281 30.671875 94.65625 C 29.953125 94.445312 29.285156 94.242188 28.671875 94.046875 C 27.648438 93.835938 26.570312 93.785156 25.4375 93.890625 C 24.300781 93.992188 23.222656 93.835938 22.203125 93.421875 C 19.117188 93.210938 17.164062 92.800781 16.34375 92.1875 C 15.519531 91.570312 14.285156 91.265625 12.640625 91.265625 C 10.378906 90.035156 8.941406 88.597656 8.328125 86.953125 C 6.679688 86.742188 5.648438 86.585938 5.234375 86.484375 C 4.828125 86.378906 4.519531 86.125 4.3125 85.71875 C 1.03125 84.6875 -1.742188 82.835938 -4.015625 80.171875 C -4.210938 79.140625 -4.363281 78.414062 -4.46875 78 C -4.570312 77.59375 -4.828125 77.1875 -5.234375 76.78125 C -5.648438 76.570312 -6.269531 76.46875 -7.09375 76.46875 C -7.914062 76.46875 -8.53125 76.257812 -8.9375 75.84375 C -10.375 74 -11.25 72.816406 -11.5625 72.296875 C -11.875 71.785156 -11.820312 71.425781 -11.40625 71.21875 C -12.84375 69.164062 -13.5625 68.035156 -13.5625 67.828125 C -13.5625 67.628906 -13.664062 67.320312 -13.875 66.90625 C -15.101562 65.46875 -15.769531 64.441406 -15.875 63.828125 C -15.976562 63.210938 -16.132812 62.492188 -16.34375 61.671875 C -16.957031 61.253906 -17.414062 60.632812 -17.71875 59.8125 C -18.03125 58.988281 -18.492188 58.375 -19.109375 57.96875 C -19.929688 56.113281 -20.34375 54.976562 -20.34375 54.5625 C -20.34375 54.15625 -20.550781 54.054688 -20.96875 54.265625 C -20.757812 52.003906 -21.066406 50.769531 -21.890625 50.5625 C -21.484375 48.507812 -21.378906 47.429688 -21.578125 47.328125 C -21.785156 47.222656 -21.890625 46.96875 -21.890625 46.5625 C -21.273438 44.914062 -21.066406 43.882812 -21.265625 43.46875 C -21.472656 43.0625 -21.578125 42.550781 -21.578125 41.9375 C -21.378906 41.113281 -21.019531 40.34375 -20.5 39.625 C -19.988281 38.90625 -20.039062 38.03125 -20.65625 37 C -19.625 36.382812 -19.054688 35.40625 -18.953125 34.0625 C -18.859375 32.726562 -18.707031 31.550781 -18.5 30.53125 C -17.675781 30.113281 -16.957031 29.800781 -16.34375 29.59375 C -15.726562 29.394531 -15.316406 28.882812 -15.109375 28.0625 C -15.109375 26.625 -15.160156 25.75 -15.265625 25.4375 C -15.367188 25.125 -15.210938 24.765625 -14.796875 24.359375 C -14.179688 23.128906 -13.664062 22.410156 -13.25 22.203125 C -12.84375 21.992188 -12.640625 21.582031 -12.640625 20.96875 C -11.609375 19.53125 -10.835938 18.5 -10.328125 17.875 C -9.816406 17.257812 -9.351562 16.644531 -8.9375 16.03125 C -7.914062 14.382812 -7.351562 13.40625 -7.25 13.09375 C -7.144531 12.789062 -6.988281 12.535156 -6.78125 12.328125 C -6.164062 11.710938 -5.550781 11.144531 -4.9375 10.625 C -4.320312 10.113281 -3.804688 9.65625 -3.390625 9.25 C -2.160156 7.601562 -1.335938 6.625 -0.921875 6.3125 C -0.515625 6.007812 -0.515625 5.550781 -0.921875 4.9375 C 1.128906 3.695312 2.304688 2.867188 2.609375 2.453125 C 2.921875 2.046875 3.390625 1.84375 4.015625 1.84375 C 4.628906 0.820312 5.550781 -0.0976562 6.78125 -0.921875 C 8.019531 -1.953125 8.84375 -2.566406 9.25 -2.765625 C 9.65625 -2.972656 9.859375 -3.285156 9.859375 -3.703125 C 12.328125 -5.546875 14.59375 -7.191406 16.65625 -8.640625 C 17.0625 -9.046875 17.46875 -9.453125 17.875 -9.859375 C 18.289062 -10.273438 18.703125 -10.6875 19.109375 -11.09375 C 21.378906 -12.332031 22.613281 -13.15625 22.8125 -13.5625 C 23.84375 -13.976562 24.71875 -14.492188 25.4375 -15.109375 C 26.15625 -15.722656 26.820312 -15.828125 27.4375 -15.421875 C 29.695312 -17.265625 31.082031 -18.238281 31.59375 -18.34375 C 32.113281 -18.445312 32.890625 -18.703125 33.921875 -19.109375 C 35.566406 -19.734375 36.488281 -19.941406 36.6875 -19.734375 C 36.894531 -19.523438 37.203125 -19.316406 37.609375 -19.109375 C 39.054688 -17.472656 39.367188 -16.34375 38.546875 -15.71875 C 37.722656 -15.101562 37.207031 -14.179688 37 -12.953125 C 34.53125 -12.128906 33.242188 -11.5625 33.140625 -11.25 C 33.035156 -10.945312 32.78125 -10.691406 32.375 -10.484375 C 28.882812 -9.453125 26.828125 -7.804688 26.203125 -5.546875 C 23.941406 -4.523438 22.757812 -3.910156 22.65625 -3.703125 C 22.5625 -3.492188 22.410156 -3.285156 22.203125 -3.078125 C 20.554688 -2.460938 19.320312 -1.4375 18.5 0 C 16.03125 2.050781 14.4375 3.4375 13.71875 4.15625 C 13 4.875 12.125 5.441406 11.09375 5.859375 C 10.6875 7.710938 10.070312 8.84375 9.25 9.25 C 8.84375 10.894531 8.273438 12.332031 7.546875 13.5625 C 6.828125 14.800781 5.957031 16.035156 4.9375 17.265625 C 4.9375 19.117188 4.578125 20.765625 3.859375 22.203125 C 3.140625 23.640625 2.984375 25.179688 3.390625 26.828125 C 2.359375 28.878906 1.945312 30.007812 2.15625 30.21875 C 2.363281 30.425781 2.46875 30.734375 2.46875 31.140625 C 2.050781 33.816406 1.789062 36.382812 1.6875 38.84375 C 1.59375 41.3125 2.46875 43.265625 4.3125 44.703125 C 4.519531 47.171875 4.929688 48.507812 5.546875 48.71875 C 6.367188 50.769531 7.296875 52.101562 8.328125 52.71875 C 9.148438 54.570312 9.765625 55.910156 10.171875 56.734375 C 10.585938 57.554688 11.304688 58.171875 12.328125 58.578125 C 12.128906 60.222656 12.285156 61.097656 12.796875 61.203125 C 13.304688 61.304688 13.769531 61.5625 14.1875 61.96875 C 16.445312 64.4375 18.296875 66.03125 19.734375 66.75 C 21.171875 67.46875 22.503906 67.929688 23.734375 68.140625 C 25.378906 69.171875 26.613281 70.144531 27.4375 71.0625 C 28.257812 71.988281 29.289062 72.144531 30.53125 71.53125 C 31.351562 72.351562 32.171875 73.070312 32.984375 73.6875 C 33.804688 74.300781 34.734375 74.816406 35.765625 75.234375 C 38.441406 75.441406 39.984375 75.644531 40.390625 75.84375 C 40.804688 76.050781 41.320312 76.257812 41.9375 76.46875 C 44.8125 76.875 46.609375 76.972656 47.328125 76.765625 C 48.046875 76.566406 48.710938 76.671875 49.328125 77.078125 C 50.566406 76.878906 51.335938 76.878906 51.640625 77.078125 C 51.953125 77.285156 52.3125 77.597656 52.71875 78.015625 C 54.164062 77.804688 55.503906 77.753906 56.734375 77.859375 C 57.960938 77.960938 59.503906 78.015625 61.359375 78.015625 C 63.410156 77.191406 64.640625 76.78125 65.046875 76.78125 C 65.460938 76.78125 66.1875 76.675781 67.21875 76.46875 C 69.0625 76.257812 70.707031 76.050781 72.15625 75.84375 C 74.613281 75.644531 76.875 75.03125 78.9375 74 C 81.195312 72.5625 82.476562 71.894531 82.78125 72 C 83.09375 72.101562 83.453125 72.050781 83.859375 71.84375 C 86.535156 70.40625 88.128906 69.476562 88.640625 69.0625 C 89.160156 68.65625 89.625 68.242188 90.03125 67.828125 C 90.851562 68.035156 91.675781 67.878906 92.5 67.359375 C 93.320312 66.847656 94.144531 66.390625 94.96875 65.984375 C 95.789062 64.128906 96.507812 62.992188 97.125 62.578125 C 97.738281 62.171875 98.457031 62.175781 99.28125 62.59375 C 99.695312 62.175781 100.109375 61.757812 100.515625 61.34375 C 100.929688 60.9375 101.238281 60.425781 101.4375 59.8125 C 103.5 58.375 104.53125 57.707031 104.53125 57.8125 C 104.53125 57.914062 104.734375 57.96875 105.140625 57.96875 C 106.367188 56.9375 107.1875 56.265625 107.59375 55.953125 C 108.007812 55.648438 108.53125 55.296875 109.15625 54.890625 C 111.820312 53.035156 113.566406 51.492188 114.390625 50.265625 C 115.828125 48.410156 116.648438 47.378906 116.859375 47.171875 C 118.503906 45.328125 119.328125 44.351562 119.328125 44.25 C 119.328125 44.144531 119.53125 43.882812 119.9375 43.46875 C 122.40625 40.800781 123.847656 37.820312 124.265625 34.53125 C 125.078125 34.125 125.484375 33.40625 125.484375 32.375 C 125.484375 31.34375 125.894531 30.726562 126.71875 30.53125 C 126.519531 29.707031 126.570312 28.984375 126.875 28.359375 C 127.1875 27.742188 127.445312 27.128906 127.65625 26.515625 C 127.445312 25.078125 127.492188 24.097656 127.796875 23.578125 C 128.109375 23.066406 128.265625 22.503906 128.265625 21.890625 C 127.234375 20.242188 126.875 19.210938 127.1875 18.796875 C 127.5 18.390625 127.753906 17.878906 127.953125 17.265625 C 127.953125 16.859375 127.898438 16.34375 127.796875 15.71875 C 127.703125 15.101562 127.65625 14.488281 127.65625 13.875 C 127.03125 11 126.71875 9.457031 126.71875 9.25 C 126.3125 7.394531 126.109375 6.210938 126.109375 5.703125 C 126.109375 5.191406 125.898438 4.726562 125.484375 4.3125 C 125.285156 3.695312 125.1875 3.128906 125.1875 2.609375 C 125.1875 2.097656 124.976562 1.429688 124.5625 0.609375 C 123.945312 -0.828125 123.484375 -1.851562 123.171875 -2.46875 C 122.867188 -3.082031 122.613281 -3.695312 122.40625 -4.3125 C 122 -5.34375 121.742188 -6.269531 121.640625 -7.09375 C 121.535156 -7.914062 121.273438 -8.632812 120.859375 -9.25 C 120.046875 -10.476562 119.535156 -11.296875 119.328125 -11.703125 C 119.117188 -12.117188 118.8125 -12.429688 118.40625 -12.640625 C 117.78125 -14.691406 116.957031 -16.03125 115.9375 -16.65625 C 115.320312 -18.5 114.910156 -19.726562 114.703125 -20.34375 C 114.492188 -20.96875 114.1875 -21.484375 113.78125 -21.890625 C 113.363281 -22.304688 113.050781 -22.820312 112.84375 -23.4375 C 112.644531 -24.050781 112.441406 -24.5625 112.234375 -24.96875 L 110.390625 -28.671875 C 108.742188 -30.523438 107.609375 -31.757812 106.984375 -32.375 C 106.367188 -32.988281 105.960938 -33.914062 105.765625 -35.15625 C 105.347656 -35.769531 104.832031 -36.226562 104.21875 -36.53125 C 103.601562 -36.84375 103.191406 -37.515625 102.984375 -38.546875 C 102.367188 -39.566406 101.546875 -40.59375 100.515625 -41.625 C 100.109375 -42.65625 99.695312 -43.476562 99.28125 -44.09375 C 98.875 -44.707031 98.359375 -45.53125 97.734375 -46.5625 C 97.117188 -47.582031 96.398438 -48.710938 95.578125 -49.953125 C 94.554688 -51.597656 93.890625 -52.625 93.578125 -53.03125 C 93.265625 -53.445312 93.007812 -53.859375 92.8125 -54.265625 C 91.78125 -55.296875 91.265625 -55.960938 91.265625 -56.265625 C 91.265625 -56.578125 91.160156 -56.9375 90.953125 -57.34375 C 89.722656 -58.988281 88.898438 -60.222656 88.484375 -61.046875 C 87.671875 -62.691406 87.054688 -63.566406 86.640625 -63.671875 C 86.234375 -63.773438 85.925781 -64.03125 85.71875 -64.4375 C 85.300781 -65.46875 84.988281 -66.132812 84.78125 -66.4375 C 84.582031 -66.75 84.273438 -67.113281 83.859375 -67.53125 C 82.222656 -70.40625 80.890625 -72.5625 79.859375 -74 C 79.441406 -74.613281 79.078125 -75.28125 78.765625 -76 C 78.460938 -76.71875 77.898438 -77.285156 77.078125 -77.703125 C 75.847656 -79.546875 74.972656 -80.984375 74.453125 -82.015625 C 73.941406 -83.046875 73.175781 -83.765625 72.15625 -84.171875 C 71.332031 -86.023438 70.710938 -87.460938 70.296875 -88.484375 C 69.890625 -89.515625 69.171875 -90.335938 68.140625 -90.953125 C 67.734375 -93.210938 67.425781 -94.445312 67.21875 -94.65625 C 66.394531 -96.507812 65.570312 -97.640625 64.75 -98.046875 C 63.71875 -100.109375 63 -101.648438 62.59375 -102.671875 C 61.15625 -104.929688 60.332031 -106.164062 60.125 -106.375 C 59.914062 -106.582031 59.398438 -106.785156 58.578125 -106.984375 C 57.960938 -108.015625 57.601562 -108.679688 57.5 -108.984375 C 57.394531 -109.296875 57.140625 -109.660156 56.734375 -110.078125 C 55.503906 -111.921875 54.785156 -112.84375 54.578125 -112.84375 C 54.367188 -112.84375 54.160156 -112.945312 53.953125 -113.15625 C 53.753906 -114.1875 53.035156 -115.523438 51.796875 -117.171875 C 49.328125 -119.835938 47.582031 -122.203125 46.5625 -124.265625 C 44.707031 -126.523438 43.472656 -127.804688 42.859375 -128.109375 C 42.242188 -128.421875 41.9375 -129.085938 41.9375 -130.109375 C 41.113281 -130.734375 40.546875 -131.503906 40.234375 -132.421875 C 39.929688 -133.347656 39.367188 -134.019531 38.546875 -134.4375 C 37.722656 -137.101562 37.003906 -138.4375 36.390625 -138.4375 C 36.179688 -139.46875 35.765625 -140.394531 35.140625 -141.21875 C 34.523438 -142.039062 33.910156 -142.863281 33.296875 -143.6875 C 32.679688 -144.507812 32.164062 -145.332031 31.75 -146.15625 C 31.34375 -146.976562 30.726562 -147.695312 29.90625 -148.3125 C 30.113281 -149.132812 30.007812 -149.695312 29.59375 -150 C 29.1875 -150.3125 29.085938 -150.984375 29.296875 -152.015625 C 28.878906 -152.421875 28.460938 -152.773438 28.046875 -153.078125 C 27.640625 -153.390625 27.128906 -153.753906 26.515625 -154.171875 C 26.722656 -154.992188 26.773438 -155.816406 26.671875 -156.640625 C 26.566406 -157.460938 26 -157.875 24.96875 -157.875 C 24.96875 -160.332031 24.914062 -161.71875 24.8125 -162.03125 C 24.71875 -162.34375 24.769531 -162.703125 24.96875 -163.109375 C 24.144531 -167.222656 23.53125 -170.203125 23.125 -172.046875 C 22.71875 -173.898438 22.71875 -175.957031 23.125 -178.21875 C 23.53125 -179.65625 23.679688 -180.578125 23.578125 -180.984375 C 23.484375 -181.398438 23.4375 -181.8125 23.4375 -182.21875 C 23.4375 -182.632812 23.585938 -183.097656 23.890625 -183.609375 C 24.203125 -184.128906 24.148438 -184.800781 23.734375 -185.625 C 24.148438 -187.257812 24.410156 -188.28125 24.515625 -188.6875 C 24.617188 -189.101562 24.460938 -189.414062 24.046875 -189.625 C 24.253906 -191.882812 24.875 -193.53125 25.90625 -194.5625 C 26.101562 -196 26.253906 -196.921875 26.359375 -197.328125 C 26.460938 -197.742188 26.722656 -197.953125 27.140625 -197.953125 C 28.160156 -201.242188 29.492188 -203.8125 31.140625 -205.65625 C 31.960938 -207.507812 32.578125 -208.691406 32.984375 -209.203125 C 33.398438 -209.710938 34.125 -209.96875 35.15625 -209.96875 C 35.5625 -211 36.175781 -211.925781 37 -212.75 C 37.820312 -213.570312 38.539062 -214.5 39.15625 -215.53125 C 41.207031 -216.550781 42.546875 -217.988281 43.171875 -219.84375 C 44.191406 -219.84375 44.859375 -220.097656 45.171875 -220.609375 C 45.484375 -221.128906 46.046875 -221.59375 46.859375 -222 C 47.679688 -223.851562 48.609375 -224.78125 49.640625 -224.78125 C 51.078125 -225.800781 51.796875 -226.46875 51.796875 -226.78125 C 51.796875 -227.09375 52.003906 -227.347656 52.421875 -227.546875 C 53.242188 -227.960938 54.113281 -228.476562 55.03125 -229.09375 C 55.957031 -229.707031 56.9375 -230.222656 57.96875 -230.640625 L 61.359375 -232.171875 C 62.390625 -232.585938 63.109375 -233.207031 63.515625 -234.03125 C 63.929688 -234.851562 64.859375 -235.054688 66.296875 -234.640625 C 67.523438 -235.671875 68.65625 -236.390625 69.6875 -236.796875 C 70.507812 -237.410156 71.535156 -237.875 72.765625 -238.1875 C 73.992188 -238.5 75.125 -239.066406 76.15625 -239.890625 C 78.625 -240.503906 79.859375 -241.015625 79.859375 -241.421875 C 79.859375 -241.835938 79.960938 -242.144531 80.171875 -242.34375 C 81.398438 -242.550781 82.578125 -242.757812 83.703125 -242.96875 C 84.835938 -243.175781 85.921875 -243.585938 86.953125 -244.203125 C 88.179688 -244.203125 89.050781 -244.203125 89.5625 -244.203125 C 90.082031 -244.203125 90.753906 -244.40625 91.578125 -244.8125 C 93.015625 -244.613281 93.832031 -244.664062 94.03125 -244.96875 C 94.238281 -245.28125 94.550781 -245.640625 94.96875 -246.046875 C 95.582031 -245.640625 96.195312 -245.535156 96.8125 -245.734375 C 97.425781 -245.941406 97.941406 -246.253906 98.359375 -246.671875 C 100.410156 -246.253906 101.539062 -246.457031 101.75 -247.28125 C 104.832031 -247.894531 107.195312 -247.894531 108.84375 -247.28125 C 111.507812 -247.28125 113 -247.125 113.3125 -246.8125 C 113.625 -246.507812 114.191406 -246.460938 115.015625 -246.671875 C 115.828125 -245.847656 116.800781 -245.332031 117.9375 -245.125 C 119.070312 -244.914062 120.148438 -244.710938 121.171875 -244.515625 C 122.609375 -244.097656 123.632812 -243.628906 124.25 -243.109375 C 124.875 -242.597656 125.800781 -242.445312 127.03125 -242.65625 C 127.644531 -241.832031 128.363281 -241.113281 129.1875 -240.5 C 130.007812 -239.882812 131.140625 -239.578125 132.578125 -239.578125 C 132.992188 -238.753906 133.613281 -238.289062 134.4375 -238.1875 C 135.257812 -238.082031 135.769531 -237.617188 135.96875 -236.796875 C 138.03125 -235.566406 139.210938 -234.847656 139.515625 -234.640625 C 139.828125 -234.429688 139.984375 -234.019531 139.984375 -233.40625 C 141.628906 -230.738281 143.375 -229.09375 145.21875 -228.46875 C 145.632812 -227.238281 146.253906 -226.265625 147.078125 -225.546875 C 147.898438 -224.828125 148.515625 -223.851562 148.921875 -222.625 C 149.742188 -222.207031 150.304688 -221.535156 150.609375 -220.609375 C 150.921875 -219.679688 151.285156 -218.707031 151.703125 -217.6875 C 152.722656 -216.445312 153.488281 -215.160156 154 -213.828125 C 154.519531 -212.492188 155.085938 -211.207031 155.703125 -209.96875 C 156.523438 -207.914062 157.09375 -206.785156 157.40625 -206.578125 C 157.71875 -206.378906 157.972656 -206.070312 158.171875 -205.65625 C 157.765625 -203.601562 157.613281 -202.367188 157.71875 -201.953125 C 157.820312 -201.546875 157.875 -201.132812 157.875 -200.71875 C 157.050781 -198.875 156.585938 -197.539062 156.484375 -196.71875 C 156.378906 -195.894531 156.117188 -195.175781 155.703125 -194.5625 C 154.878906 -192.300781 154.46875 -190.8125 154.46875 -190.09375 C 154.46875 -189.375 154.160156 -189.015625 153.546875 -189.015625 L 152.9375 -185 C 150.875 -182.332031 149.429688 -180.894531 148.609375 -180.6875 C 147.378906 -178.832031 146.554688 -177.597656 146.140625 -176.984375 C 145.734375 -176.367188 145.222656 -175.753906 144.609375 -175.140625 C 144.191406 -174.722656 143.726562 -174.253906 143.21875 -173.734375 C 142.707031 -173.222656 142.242188 -172.5625 141.828125 -171.75 C 139.984375 -170.300781 138.957031 -169.472656 138.75 -169.265625 C 138.539062 -169.066406 138.128906 -169.070312 137.515625 -169.28125 C 137.109375 -168.863281 136.800781 -168.398438 136.59375 -167.890625 C 136.382812 -167.378906 135.972656 -166.914062 135.359375 -166.5 C 135.765625 -165.882812 135.710938 -165.367188 135.203125 -164.953125 C 134.691406 -164.546875 134.226562 -163.929688 133.8125 -163.109375 C 132.375 -162.285156 131.707031 -161.71875 131.8125 -161.40625 C 131.914062 -161.101562 131.757812 -160.742188 131.34375 -160.328125 C 129.707031 -160.328125 128.578125 -160.328125 127.953125 -160.328125 C 127.335938 -160.328125 126.617188 -160.019531 125.796875 -159.40625 C 124.972656 -159.820312 124.148438 -159.925781 123.328125 -159.71875 C 122.503906 -159.507812 121.785156 -159.613281 121.171875 -160.03125 C 121.585938 -161.46875 121.535156 -162.390625 121.015625 -162.796875 C 120.503906 -163.210938 120.046875 -163.832031 119.640625 -164.65625 C 120.453125 -165.0625 120.910156 -165.570312 121.015625 -166.1875 C 121.117188 -166.8125 121.582031 -167.328125 122.40625 -167.734375 C 122.820312 -168.960938 123.441406 -170.195312 124.265625 -171.4375 C 126.722656 -172.664062 128.257812 -173.742188 128.875 -174.671875 C 129.5 -175.597656 130.320312 -176.265625 131.34375 -176.671875 C 132.164062 -179.140625 132.890625 -180.679688 133.515625 -181.296875 C 134.535156 -183.765625 135.195312 -185.101562 135.5 -185.3125 C 135.8125 -185.519531 136.070312 -185.828125 136.28125 -186.234375 C 136.28125 -188.085938 136.429688 -189.113281 136.734375 -189.3125 C 137.046875 -189.519531 137.203125 -189.832031 137.203125 -190.25 C 136.585938 -191.6875 136.28125 -193.226562 136.28125 -194.875 C 136.894531 -196.3125 137.097656 -197.335938 136.890625 -197.953125 C 136.691406 -198.566406 136.59375 -199.285156 136.59375 -200.109375 C 135.769531 -200.515625 135.304688 -201.234375 135.203125 -202.265625 C 135.097656 -203.296875 134.738281 -204.222656 134.125 -205.046875 C 134.125 -207.304688 133.914062 -208.640625 133.5 -209.046875 C 133.09375 -209.460938 132.6875 -209.875 132.28125 -210.28125 C 131.039062 -213.570312 129.851562 -215.367188 128.71875 -215.671875 C 127.59375 -215.984375 126.925781 -216.859375 126.71875 -218.296875 C 125.894531 -218.503906 124.867188 -219.222656 123.640625 -220.453125 C 121.785156 -222.515625 120.445312 -223.800781 119.625 -224.3125 C 118.8125 -224.820312 117.992188 -225.390625 117.171875 -226.015625 C 115.316406 -226.628906 114.285156 -226.988281 114.078125 -227.09375 C 113.878906 -227.195312 113.675781 -227.453125 113.46875 -227.859375 C 111.414062 -227.859375 110.234375 -228.007812 109.921875 -228.3125 C 109.609375 -228.625 109.25 -228.882812 108.84375 -229.09375 C 106.789062 -229.300781 105.609375 -229.453125 105.296875 -229.546875 C 104.984375 -229.648438 104.828125 -229.5 104.828125 -229.09375 C 102.984375 -230.53125 102.007812 -231.144531 101.90625 -230.9375 C 101.800781 -230.738281 101.546875 -230.640625 101.140625 -230.640625 C 99.898438 -231.460938 98.457031 -231.664062 96.8125 -231.25 C 95.375 -231.457031 94.550781 -231.457031 94.34375 -231.25 C 94.144531 -231.039062 93.835938 -230.9375 93.421875 -230.9375 C 92.597656 -230.9375 91.773438 -230.988281 90.953125 -231.09375 C 90.128906 -231.195312 89.304688 -231.046875 88.484375 -230.640625 C 87.460938 -231.046875 86.128906 -230.835938 84.484375 -230.015625 C 83.046875 -229.804688 82.222656 -229.597656 82.015625 -229.390625 C 81.804688 -229.191406 81.5 -229.09375 81.09375 -229.09375 C 79.039062 -228.476562 77.960938 -228.015625 77.859375 -227.703125 C 77.753906 -227.398438 77.492188 -227.144531 77.078125 -226.9375 C 74.617188 -226.726562 73.078125 -226.519531 72.453125 -226.3125 C 71.835938 -226.113281 71.53125 -225.703125 71.53125 -225.078125 C 70.5 -224.878906 69.726562 -224.519531 69.21875 -224 C 68.707031 -223.488281 67.832031 -223.234375 66.59375 -223.234375 C 65.976562 -222.828125 65.414062 -222.414062 64.90625 -222 C 64.394531 -221.59375 63.726562 -221.285156 62.90625 -221.078125 C 60.84375 -219.222656 59.757812 -218.550781 59.65625 -219.0625 C 59.5625 -219.582031 59 -219.632812 57.96875 -219.21875 C 55.914062 -218.195312 54.785156 -217.273438 54.578125 -216.453125 C 53.546875 -215.835938 52.722656 -214.910156 52.109375 -213.671875 C 51.492188 -212.441406 50.671875 -211.519531 49.640625 -210.90625 C 48.816406 -209.875 48.25 -209.097656 47.9375 -208.578125 C 47.632812 -208.066406 47.175781 -207.710938 46.5625 -207.515625 C 46.96875 -206.691406 46.914062 -205.921875 46.40625 -205.203125 C 45.894531 -204.484375 45.945312 -203.609375 46.5625 -202.578125 C 44.914062 -200.722656 43.9375 -199.742188 43.625 -199.640625 C 43.320312 -199.546875 43.066406 -199.289062 42.859375 -198.875 C 43.265625 -196.613281 43.570312 -195.175781 43.78125 -194.5625 C 43.988281 -193.945312 44.195312 -193.429688 44.40625 -193.015625 C 43.78125 -189.316406 43.160156 -187.054688 42.546875 -186.234375 C 42.960938 -185.410156 43.269531 -184.738281 43.46875 -184.21875 C 43.675781 -183.707031 43.78125 -182.941406 43.78125 -181.921875 C 43.78125 -181.097656 43.726562 -180.328125 43.625 -179.609375 C 43.519531 -178.890625 43.675781 -178.117188 44.09375 -177.296875 C 44.707031 -175.648438 45.425781 -174.3125 46.25 -173.28125 C 47.070312 -170.613281 47.328125 -168.867188 47.015625 -168.046875 C 46.710938 -167.222656 46.765625 -166.296875 47.171875 -165.265625 C 47.785156 -163.828125 48.609375 -163.003906 49.640625 -162.796875 C 49.429688 -162.179688 49.582031 -161.613281 50.09375 -161.09375 C 50.613281 -160.582031 50.976562 -160.125 51.1875 -159.71875 C 52.207031 -158.488281 52.820312 -157.5625 53.03125 -156.9375 C 53.238281 -156.320312 53.648438 -155.8125 54.265625 -155.40625 C 54.054688 -154.375 54.15625 -153.648438 54.5625 -153.234375 C 54.976562 -152.828125 55.492188 -152.421875 56.109375 -152.015625 C 56.523438 -149.953125 56.835938 -148.816406 57.046875 -148.609375 C 58.066406 -147.585938 58.9375 -146.507812 59.65625 -145.375 C 60.375 -144.25 61.144531 -143.476562 61.96875 -143.0625 C 61.96875 -142.445312 62.125 -141.929688 62.4375 -141.515625 C 62.75 -141.109375 62.90625 -140.492188 62.90625 -139.671875 C 63.519531 -139.054688 64.082031 -138.390625 64.59375 -137.671875 C 65.101562 -136.953125 65.671875 -136.179688 66.296875 -135.359375 C 67.316406 -134.328125 67.828125 -133.601562 67.828125 -133.1875 C 67.828125 -132.78125 67.929688 -132.375 68.140625 -131.96875 C 68.753906 -130.9375 69.578125 -130.113281 70.609375 -129.5 C 71.015625 -127.644531 71.734375 -126.304688 72.765625 -125.484375 C 73.179688 -125.078125 73.695312 -124.613281 74.3125 -124.09375 C 74.925781 -123.582031 75.539062 -123.019531 76.15625 -122.40625 C 76.570312 -122 76.878906 -121.484375 77.078125 -120.859375 C 77.285156 -120.242188 77.695312 -119.835938 78.3125 -119.640625 C 77.90625 -118.816406 78.007812 -117.992188 78.625 -117.171875 C 79.238281 -116.347656 79.753906 -115.628906 80.171875 -115.015625 C 82.222656 -111.515625 83.351562 -108.738281 83.5625 -106.6875 C 83.96875 -106.070312 84.425781 -105.554688 84.9375 -105.140625 C 85.457031 -104.734375 85.820312 -104.21875 86.03125 -103.59375 C 87.050781 -101.957031 87.816406 -100.984375 88.328125 -100.671875 C 88.847656 -100.359375 89.210938 -99.894531 89.421875 -99.28125 C 90.648438 -97.632812 91.675781 -96.554688 92.5 -96.046875 C 93.320312 -95.535156 94.039062 -94.765625 94.65625 -93.734375 C 95.6875 -91.679688 96.507812 -90.445312 97.125 -90.03125 C 97.332031 -87.769531 97.691406 -86.640625 98.203125 -86.640625 C 98.710938 -86.640625 99.070312 -86.535156 99.28125 -86.328125 C 100.101562 -84.679688 100.566406 -83.859375 100.671875 -83.859375 C 100.773438 -83.859375 100.929688 -83.65625 101.140625 -83.25 C 101.546875 -82.84375 101.898438 -82.378906 102.203125 -81.859375 C 102.515625 -81.347656 102.976562 -80.988281 103.59375 -80.78125 C 104.832031 -78.9375 105.554688 -77.910156 105.765625 -77.703125 C 106.378906 -76.054688 106.835938 -75.128906 107.140625 -74.921875 C 107.453125 -74.710938 107.609375 -74.40625 107.609375 -74 C 109.253906 -71.738281 110.28125 -70.144531 110.6875 -69.21875 C 111.101562 -68.289062 111.820312 -67.519531 112.84375 -66.90625 C 113.664062 -64.238281 114.285156 -63.003906 114.703125 -63.203125 C 115.523438 -61.148438 116.191406 -59.710938 116.703125 -58.890625 C 117.210938 -58.066406 117.878906 -57.347656 118.703125 -56.734375 C 119.941406 -55.296875 120.816406 -54.007812 121.328125 -52.875 C 121.835938 -51.75 122.710938 -50.976562 123.953125 -50.5625 C 125.796875 -47.28125 127.023438 -45.175781 127.640625 -44.25 C 128.265625 -43.320312 128.679688 -42.035156 128.890625 -40.390625 C 129.296875 -39.984375 129.804688 -39.570312 130.421875 -39.15625 C 131.035156 -38.75 131.65625 -38.335938 132.28125 -37.921875 C 132.894531 -36.078125 133.40625 -34.691406 133.8125 -33.765625 C 134.226562 -32.835938 134.742188 -31.859375 135.359375 -30.828125 C 136.585938 -28.773438 137.253906 -27.59375 137.359375 -27.28125 C 137.460938 -26.976562 137.820312 -26.722656 138.4375 -26.515625 Z M 140.59375 -22.515625 "/></g></g></g></g></g></svg>