<?xml version="1.0" encoding="UTF-8"?>
<svg id="Camada_2" data-name="Camada 2" xmlns="http://www.w3.org/2000/svg" viewBox="0 0 178.01 156.98">
  <defs>
    <style>
      .cls-1 {
        fill: #fff;
      }
    </style>
  </defs>
  <g id="Camada_1-2" data-name="Camada 1">
    <path class="cls-1" d="m42.6,86.57c-1.01,4.6-4.08,6.28-6.57,6.88-1.48.35-3.03.31-4.53.03-2.92-.54-4.41.09-5.02.48-.1.07-.24-.04-.2-.16,3.33-10.51,13.07-8.61,14.46-8.28.07.01.09.1.03.15-2.1,1.69-10.15,5.6-10.15,5.6.32.14,9.75-4.06,11.7-4.93.15-.07.31.07.28.23Z"/>
    <g>
      <path class="cls-1" d="m73.23,63.94c-.6.72-2.27,1.76-6.59.44-.21-.06-.42-.12-.63-.17-1.63-.37-3.3-.29-4.85.02-3.36.66-6.23,2.38-7.18,3.01-.1.06-.23-.02-.19-.12.52-1.06,2.52-3.87,7.65-5.38,1.1-.32,2.34-.59,3.75-.76,1.52-.19,2.76-.26,3.78-.25,3.81.05,4.47,1.29,4.58,2.14.05.38-.06.76-.32,1.07Z"/>
      <path class="cls-1" d="m76.14,93.65c.3-1.35.1-2.11-.23-3.43,1.28.58,1.56,2.73.23,3.43Z"/>
      <path class="cls-1" d="m77.28,78.17c-.18,1.35-.55,2.65-1.08,3.89-.41.99-.92,1.94-1.5,2.85-1.08,1.56-.63,2.91,1.14,4.23-2.26-.09-3.91-2.35-2.97-4.53.97-2.26,2.1-4.47,2.89-6.79.44-1.31.81-2.6.87-4.09.77,1.31.85,2.96.65,4.44Z"/>
      <path class="cls-1" d="m82.79,89.37c-.79.12-1.51-.19-2.04-.58-.63-.53-1.36-.62-2.06-.39l-.89.45c.41-.96,1.5-1.44,2.5-1.26.35.05.69.18.99.4,1.02.76,2.3.45,2.58-.72.1-.49.08-.95-.09-1.45.27.24.47.56.58.93.37,1.11-.31,2.38-1.57,2.62Z"/>
      <path class="cls-1" d="m87.32,102.04l-1.79,1.85c-1.08,1.12-2.41,2.01-3.86,2.57-1.12.44-2.3.67-3.51.67-1.13,0-2.24-.31-3.22-.9-1.69-1.02-3.11-2.45-4.1-4.15l-.59-1.02c-.04-.06-.03-.13.01-.18.05-.06.12-.08.18-.06l4.09,1.4c1.15.4,2.36.57,3.58.59,1.06-.01,2.14-.09,3.2-.23l5.87-.82c.06-.01.13.02.17.09.03.06.02.14-.03.19Z"/>
      <path class="cls-1" d="m89.99,99.7l-.3.3c-.59.59-1.33.99-2.16,1.15-.39.08-.78.11-1.17.11-.44,0-.88-.04-1.31-.14l-3.63-1.17c-.85-.28-1.77-.34-2.65-.19-.65.11-1.31.1-1.95-.02l-.36-.07c-.67-.12-1.36-.14-2.03-.05l-4.02.52c-.06.01-.11-.01-.15-.06-.04-.04-.05-.11-.02-.16l.38-.99c.48-1.23,1.29-2.29,2.34-3.08.82-.61,1.9-.81,2.89-.53l.91.26c.42.12.85.11,1.26-.03l.63-.22c1.34-.46,2.84-.37,4.12.26.72.36,1.38.84,1.96,1.41l1.18,1.17c.3.3.65.55,1.02.75l.19.1c.6.31,1.27.46,1.94.43l.8-.04s.13.04.16.1c.03.06,0,.14-.03.19Z"/>
      <path class="cls-1" d="m106.56,65.83c-1.48-.92-7.47-4.31-12.73-2.59-4.29,1.4-5.97.4-6.59-.31-.27-.31-.39-.68-.35-1.06.11-1.09,1.11-2.79,8.32-2.06,7.97.81,10.87,4.62,11.53,5.89.05.1-.08.19-.18.13Z"/>
      <path class="cls-1" d="m125.32,85.23c-.39-.02-.77-.06-1.12-.11-.8-.11-1.51-.29-2.16-.51.48.05,1.29.17,2.17.35.36.07.74.16,1.11.27Z"/>
    </g>
    <g>
      <path class="cls-1" d="m117.92,43.25s-.07-.01-.1-.01c-.29-.02-.47-.32-.37-.59t.01-.02l.46.62Z"/>
      <path class="cls-1" d="m135.14,43.68c-1.67,1.35-3.69,2.52-6.03,3.06-.42-.4-.74-.93-.89-1.62-.04-.2.1-.22.31-.26.92-.17,3.73-.39,6.61-1.18Z"/>
      <path class="cls-1" d="m140.27,37.82c-.62,1.01-1.89,2.84-3.72,4.62-3.41,1-8.36,2.15-12.16,1.8-.03,0-.07-.01-.1-.01-.29-.02-.47-.32-.37-.59t.01-.02h0c2.73-.38,7.37-1.16,10.12-3.47-.37.13-4.89,1.81-9.71,2.66,1.17-1.81,4.79-4.81,15.93-4.99Z"/>
    </g>
    <path class="cls-1" d="m148.31,18.42c-.12-.45-.22-.86-.29-1.24.13.39.22.79.29,1.24Z"/>
    <path class="cls-1" d="m149.13,110.71c-.17.18-.31.38-.45.59-.15.23-.29.44-.44.66-.16-.7.48-1.37.48-1.37,0,0,.15.05.41.12Z"/>
    <path class="cls-1" d="m166.98,60.78v.02s-.01-.02-.01-.02h.01Z"/>
    <path class="cls-1" d="m42.6,86.57c-1.01,4.6-4.08,6.28-6.57,6.88-1.48.35-3.03.31-4.53.03-2.92-.54-4.41.09-5.02.48-.1.07-.24-.04-.2-.16,3.33-10.51,13.07-8.61,14.46-8.28.07.01.09.1.03.15-2.1,1.69-10.15,5.6-10.15,5.6.32.14,9.75-4.06,11.7-4.93.15-.07.31.07.28.23Z"/>
    <path class="cls-1" d="m68.97,60.73l-2.96,3.48c-1.63-.37-3.3-.29-4.85.02-3.36.66-6.23,2.38-7.18,3.01-.1.06-.23-.02-.19-.12.52-1.06,2.52-3.87,7.65-5.38,1.1-.32,2.34-.59,3.75-.76,1.52-.19,2.76-.26,3.78-.25Z"/>
    <g>
      <path class="cls-1" d="m73.23,63.94c-.6.72-2.27,1.76-6.59.44-.21-.06-.42-.12-.63-.17-1.63-.37-3.3-.29-4.85.02.1-.83.19-1.66.28-2.49,1.1-.32,2.34-.59,3.75-.76,1.52-.19,2.76-.26,3.78-.25,3.81.05,4.47,1.29,4.58,2.14.05.38-.06.76-.32,1.07Z"/>
      <path class="cls-1" d="m76.14,93.65c.3-1.35.1-2.11-.23-3.43,1.28.58,1.56,2.73.23,3.43Z"/>
      <path class="cls-1" d="m77.28,78.17c-.18,1.35-.55,2.65-1.08,3.89-.41.99-.92,1.94-1.5,2.85-1.08,1.56-.63,2.91,1.14,4.23-2.26-.09-3.91-2.35-2.97-4.53.97-2.26,2.1-4.47,2.89-6.79.44-1.31.81-2.6.87-4.09.77,1.31.85,2.96.65,4.44Z"/>
      <path class="cls-1" d="m82.79,89.37c-.79.12-1.51-.19-2.04-.58-.63-.53-1.36-.62-2.06-.39l-.89.45c.41-.96,1.5-1.44,2.5-1.26.35.05.69.18.99.4,1.02.76,2.3.45,2.58-.72.1-.49.08-.95-.09-1.45.27.24.47.56.58.93.37,1.11-.31,2.38-1.57,2.62Z"/>
      <path class="cls-1" d="m87.32,102.04l-1.79,1.85c-1.08,1.12-2.41,2.01-3.86,2.57-1.12.44-2.3.67-3.51.67-1.13,0-2.24-.31-3.22-.9-1.69-1.02-3.11-2.45-4.1-4.15l-.59-1.02c-.04-.06-.03-.13.01-.18.05-.06.12-.08.18-.06l4.09,1.4c1.15.4,2.36.57,3.58.59,1.06-.01,2.14-.09,3.2-.23l5.87-.82c.06-.01.13.02.17.09.03.06.02.14-.03.19Z"/>
      <path class="cls-1" d="m89.99,99.7l-.3.3c-.59.59-1.33.99-2.16,1.15-.39.08-.78.11-1.17.11-.44,0-.88-.04-1.31-.14l-3.63-1.17c-.85-.28-1.77-.34-2.65-.19-.65.11-1.31.1-1.95-.02l-.36-.07c-.67-.12-1.36-.14-2.03-.05l-4.02.52c-.06.01-.11-.01-.15-.06-.04-.04-.05-.11-.02-.16l.38-.99c.48-1.23,1.29-2.29,2.34-3.08.82-.61,1.9-.81,2.89-.53l.91.26c.42.12.85.11,1.26-.03l.63-.22c1.34-.46,2.84-.37,4.12.26.72.36,1.38.84,1.96,1.41l1.18,1.17c.3.3.65.55,1.02.75l.19.1c.6.31,1.27.46,1.94.43l.8-.04s.13.04.16.1c.03.06,0,.14-.03.19Z"/>
      <path class="cls-1" d="m106.56,65.83c-1.48-.92-7.47-4.31-12.73-2.59-4.29,1.4-5.97.4-6.59-.31-.27-.31-.39-.68-.35-1.06.11-1.09,1.11-2.79,8.32-2.06,7.97.81,10.87,4.62,11.53,5.89.05.1-.08.19-.18.13Z"/>
      <path class="cls-1" d="m124.21,84.96c0,.06,0,.11-.01.16-.8-.11-1.51-.29-2.16-.51.48.05,1.29.17,2.17.35Z"/>
    </g>
    <path class="cls-1" d="m125.32,85.23c-.39-.02-.77-.06-1.12-.11-.8-.11-1.51-.29-2.16-.51.48.05,1.29.17,2.17.35.36.07.74.16,1.11.27Z"/>
    <path class="cls-1" d="m117.92,43.25s-.07-.01-.1-.01c-.29-.02-.47-.32-.37-.59t.01-.02l.46.62Z"/>
    <path class="cls-1" d="m82.79,89.38c-.79.12-1.51-.19-2.04-.58-.45-.38-1.05-.57-1.64-.51-.48.05-.9.34-1.31.57.34-.99,1.5-1.44,2.5-1.26.35.05.69.18.99.4,1.02.76,2.3.45,2.58-.72.1-.49.08-.95-.09-1.45.27.24.47.56.58.93.37,1.11-.31,2.38-1.57,2.62Z"/>
    <path class="cls-1" d="m76.14,93.66c.3-1.35.1-2.11-.23-3.43,1.28.58,1.56,2.73.23,3.43Z"/>
    <path class="cls-1" d="m165.96,50.96v.07s-.01,0-.01-.02v-.05Z"/>
    <path class="cls-1" d="m174.13,85.71c-.17.32-.42.67-.76,1.01.18-.2.36-.42.53-.67.08-.12.16-.23.23-.34Z"/>
    <path class="cls-1" d="m173.33,86.76c-2.02,2.19-4.47,1.8-5.07,1.66,1.42.26,2.69-.07,3.7-.63.54-.3,1-.66,1.37-1.03Z"/>
    <path class="cls-1" d="m124.34,42.81c-.2.31-.32.58-.41.8,2.73-.37,7.37-1.15,10.12-3.46-.37.13-4.89,1.81-9.71,2.66Zm22.41-4.81c-2.4-.16-4.55-.21-6.48-.18-.62,1.01-1.89,2.84-3.72,4.62,2.2-.65,3.76-1.22,3.97-1.3-1.45,1.22-3.43,2.01-5.38,2.54-1.67,1.35-3.69,2.52-6.03,3.06,1.49,1.45,4.2,1.31,4.2,1.31,7.69-.34,12.59-7.8,13.67-9.62.11-.18-.02-.41-.23-.43Z"/>
    <path class="cls-1" d="m174.91,71.09c.8-.26,1.65-.41,2.5-.39-1.36-.15-2.61-.12-3.93-.19.3-1.05.53-2.37.67-4.01.66-8.28-4.76-4.3-4.76-4.3.55,0,1.28.04,1.67.5.14.17.21.38.21.6,0,.44-.17.81-.54,1.06-.16.1-.33.17-.51.24-1.01.38-1.89-.32-2.39-1.17-.58-1-.79-2.15-.85-2.61h0s-.01-.03-.01-.03h.01c1.07-1.02,2.16-2.32,2.93-3.88,1.14-2.3,2.38-2.39,3.26-2.03.65.28,1.12.85,1.37,1.51,1.14,3.07,3.47,1.71,3.47,1.71-1.16-.25-1.77-1.31-2.08-2.4-.9-3.04-4.79-4.01-7.09-1.82-.96.91-1.49,1.95-1.66,2.32-.12-1.69-.48-3.45-1.22-5.17,0,0-.01,0-.01-.02-.08-.19-.17-.39-.27-.58,1.75.39,3.79.02,5.32-.63.82-.4,1.62-1.36,1.27-2.31.03.95-.75,1.53-1.52,1.74-2.1.44-5.05.49-6.57-1.24-1.22-1.62-2.91-3.13-5.16-4.42h-.01c-.31-.44-.39-.98.19-1.52,1.47-1.38,2-.06,2-.06.25.6.42,1.22.72,1.81.36.71,1.01,1.8,1.95,1.42.84-.33,2.64-.83,3.02.4,0-.1.07-.26.08-.34.03-.28.02-.56-.06-.82-.21-.63-.91-.83-1.51-.72-.54.1-1.07.27-1.62.14-.27-.06-.53-.24-.6-.51-.29-1.08,1.39-3.09,1.39-3.09,0,0,1.11-2.02-.52-2.84-.97-.49-2.28.03-3.18.54-.53.3-1.11.4-1.66.33.14-1.42.13-3.01-.23-4.59v-.03c0-1.18,1.01-2.33,1.72-3.16.82-.95,1.81-2.21,3.02-2.65,1.13-.4,2.26.11,2.87,1.1.48.8.58,1.53,1.43,2.07.86.52,1.79.6,1.67.52-.06-.08-.68-.59-1.08-1.44-.4-.78-.4-1.67-.41-2.49-.1-1.46-1.56-2.45-2.88-2.57-3.32-.46-4.78,1.78-7.12,3.35-.5.3-1.08.51-1.68.63-.78-.81-1.76-1.53-2.98-2.13,0,0,.7-2.96-.39-5.39.09-.13.22-.23.39-.27.78-.06,1.59.56,2.36.8.29.09.62.01.83-.2-.24.18-.54.21-.8.09-.81-.41-1.37-1.09-2.38-1.22-.28,0-.51.08-.71.2-.78-1.26-2.15-2.29-4.53-2.5-.12-.45-.22-.86-.29-1.24-.01-.05-.02-.1-.03-.14-.51-2.82.34-3.95,1.38-4.36,1.86-.73,3.72,1.12,3.25,3.05-.12.52-.27.91-.3,1,.28-.27.5-.56.69-.83,2.24-3.21-1.59-7.47-4.99-5.51-.46.26-.81.6-1.08.96-.51.67-1.12,1.22-1.79,1.66-3.75-2.74-9.37-1.96-9.37-1.96-7.05-7.71-16.67-1.62-16.67-1.62-2.3-.88-4.52-1.33-6.59-1.46,2.46-.56,4.84-1.38,6.75-3,.98-.94,1.11-2.41,2.5-2.91,1.18-.51,2.55-.55,3.86-.5-1.31-.16-2.67-.24-3.98.19-.65.22-1.29.61-1.67,1.26-1.63,2.95-5.43,3.23-8.42,3.8-4.74.55-10.05.53-14.01,3.44.08-.14.17-.26.26-.39,1.21-1.92,3.33-2.52,5.21-3.59.9-.58,1.79-1.33,2.2-2.35-1.03,2.06-3.33,2.61-5.29,3.48-1.69.89-2.96,2.36-3.83,4.04-.72-.36-1.52-.55-2.34-.63-1.26-.12-3.48-.71-4.03-3.31,0,0-4.17-12.9-20.35-4.88,0,0-2.64,2.13-5.51,3.64-2.43,1.28-5.31,1.45-7.85.41-.02-.01-.04-.01-.06-.02-1.43-.6-2.97-.91-4.51-.73-2.16.26-4.44,1.25-3.79,4.44,0,0,.95,1.84-.96,2.55-.8.29-1.69.2-2.47-.14-1.04-.47-2.73-1.27-4.1-2.19-1.38-.94-3.07-1.4-4.71-1.05-1.75.38-3.54,1.54-3.56,4.7-.02,3.12-1.95,4.32-3.86,4.73-2.06.44-4.19-.35-5.61-1.91l-.16-.18c-.94-1.03-2.48-1.42-3.71-.76-1.1.6-1.8,1.95-.19,5.02-.16-.42-1.23-3.37.66-4.45.71-.4,1.6-.07,2,.63.79,1.39,2.55,3.82,5.63,5.12.85.36.82,1.61-.08,1.83-.7.18-1.58.23-2.62-.05-1.27-.34-2.62-.41-3.89-.09-2.01.51-4.29,2-4.53,6.08,0,0,.43-1.48,1.53-1.47,0,0,.48,2.45-1.3,3.25-.68.31-1.48.17-2.09-.27l-2.78-2.01s-1.93-1.74-3.74-.98c0,0-1.88.5-1.84,2.64.02.79-.27,1.54-.83,2.08-.28.27-.8.37-1.02.68.43.17,1.11-.29,1.44-.52.44-.3.84-.67,1.17-1.09.34-.41.62-.86.86-1.34.27-.55.84-.93,1.46-.95.73-.03,1.66.32,2.38,1.89.69,1.52,1.66,2.32,2.46,2.74,1.09.58,1.64,1.9,1.06,2.99-.19.35-.46.65-.86.82-.35.15-.76-.02-.98-.34-.78-1.12-2.94-3.46-5.09,1.02,0,0,2.46-3,3.85-1.14.53.7.46,1.7-.08,2.39-.29.37-.46.42-1.03.78.62-.3,2.97-1.39,3.05-.2,0,0-1.11-.3-1.91,2.6,0,0-.3,1.21-1.92,1.11-.58-.03-1.16.07-1.72.22-1.84.51-4.89,1.94-4.44,5.75.45,3.9,3.56,4.82,5.26,5.03,1.05.13,1.55,1.44.76,2.16-.37.34-.95.68-1.85.97,0,0-7.83,1.17-7.27,5.2,0,0,.38,2.2,2.38,3.09,0,0,1.87,1.33.77,3.45,0,0,2.12-1.68-.7-5.45,0,0-1.64-3.63,3.55-3.98,0,0,6.02.68,7.35-3.71.24-.81.25-1.67.1-2.5-.21-1.19-.33-3.48,2.11-2.87,0,0,1.6.21,1.92,1.3.16.55-.21,1.11-.75,1.29-.53.19-1.2.63-1.11,1.69.14,1.76-.75,1.87-.75,1.87,0,0,1.51,0,1.68-1.78,0,0,.14-.97.99-1.12.71-.14,2.18-.48,2.88-1.56.44-.69,1.18-1.16,2-1.2.44-.02.82.08.89.46,0,0,1.44-.15,1.57.68v.07c0,.55-.94,1.03-1.52,1.27-.24.1-.39.33-.4.58-.04,1.08.11,1.97-2.03,2.41-.6.12-1.18.3-1.74.55-1.69.73-4.94,2.29-5.86,3.73-.27.42-.7.7-1.2.72-1.41.06-3.86.38-3.99,1.96.01.07.02.14.03.22.13.39.71,1.57,2.94,2.15.41.11.79.39.84.82.02.15.03.3-.03.44-.08.18-.25.3-.42.38-.26.15-.56.26-.85.34-.52.15-1.12.62-1.07,1.22.04.41.36.74.66.99-.09-.16-.76-1.39.93-1.81.12-.03.27-.02.39-.04.28-.05.56-.14.81-.28.26-.14.49-.37.62-.64.07-.16.11-.33.11-.5,0-.19-.08-.35-.13-.53-.03-.11-.06-.21-.09-.32-.06-.25-.11-.51-.14-.76-.04-.43-.03-1.01.37-1.28.12-.08.26-.12.41-.13,0,0,1.55-.17,1.26.87-.09.14-.16.29-.24.43-.19.38-.37.76-.54,1.15-.23.53-.43,1.07-.6,1.62-.18.6-.33,1.21-.4,1.84-.1.77-.09,1.59.18,2.33.03.09.07.18.07.28-.01.75-1.06.52-1.52.5-1.36-.05-2.73.2-3.99.72-.42.18-.83.39-1.2.66-.37.26-.71.58-.99.95-.29.39-.5.84-.63,1.31-.14.56-.17,1.15-.12,1.73.03.26.07.52.13.78,0,0,.25.95.66,1.93.55,1.33-.29,2.9-1.73,2.97-.2.01-.41,0-.58-.05.23.08,1.99.66,3.8-.67,1.26-.93,1.91-2.47,1.91-4.03,0-.4-.01-.82-.03-1.25-.1-1.53,1-2.89,2.53-3.12h.06c.85-.12,1.49.77,1.15,1.56-.32.73-.59,1.83-.09,2.97.39.88.22,1.9-.5,2.55-1.37,1.23-3.12,3.26-2.74,5.35.26,1.38,1.11,3.02,2.72,3.05.08,0,.16,0,.24-.02.09-.03.16-.06.24-.1.24-.09.49-.15.75-.13.64.06.98.63,1.12,1.2,0-.07.84-.18.91-.18.57.02.76.52.67,1.02,0,.02-.01.05-.02.06-.02.02-.04.02-.06.03-1.13.33-2.28.9-2.98,1.9-.63.92-.54,2.03-.05,2.99,0,0-4.16,4.41-1.08,7.59,0,0,.08.08.22.2,2.02,1.69,4.99,1.57,6.91-.22l.77-.73c1.22-1.14,3.34-.33,3.3,1.35,0,.21-.03.44-.1.69-.22.92-.86,1.68-1.67,2.17-1.46.86-4.05,2.74-2.96,4.57,0,0,.69,1.64,3.21,1.36.43-.05.85-.19,1.3-.2.23,0,.48,0,.7.08.13.05.46.26.35.43-.02.04-.06.06-.1.08-.48.24-.94.52-1.39.8-.44.27-.84.61-1.21.98-.25.25-.5.55-.57.91-.04.17-.03.35.02.52.14.5.61.83,1.1,1.01.58.22,1.22.26,1.84.21.63-.05,1.29-.19,1.88.03.53.2.93.69,1.02,1.24.05-.79-.41-1.55-1.05-2.02-.57-.42-1.3-.65-1.99-.75-.07-.01-.15-.02-.22-.06-.15-.1-.07-.44-.04-.59.06-.25.18-.48.34-.68.31-.39.73-.69,1.15-.94,0,0,2.72-1.67,1.89-3.48,0,0-.58-1.82-4.72-.24,0,0,.47-1.96,3.61-3.2,3.14-1.25,1.75-4.51,1.75-4.51,0,0,1.15.86,2.55.73-1,2.88-2.27,8.67,2.18,11.91-1.34.88-2.52,2.41-2.96,5.05-.29,1.69.09,3.47,1.26,4.73.35.37.75.66,1.17.76,0,0,1.31.89.7,2.64-.43,1.24,1.71,1.94,3,2.25.94.22,1.77.79,2.2,1.64.38.74.51,1.69-.24,2.76.23-.23,3.1-3.2-.89-5.82,0,0-3.83-2.06-1.98-4.03,0,0,1.04-.59,2.43-.27.33,2.41,1.7,4.52,5.4,4.72.01.65.25,1.12.25,1.12,0,0,.49,1.41,1.95,1.22,1.16-.15,2.33.6,2.35,1.77.01.31-.05.66-.22,1.04-.51,1.15-1.73,1.91-2.94,1.59-.61-.16-1.52-.53-1.5-1.57,0,0,0-1.91,2.3-.71-.06-.14-.78-1.48-2.04-.84-.7.36-1.15,1.1-1.04,1.88.09.64.51,1.41,1.84,1.92,2.67,1.01,3.95-1.51,3.95-1.51,0,0,.51-.76.86-1.79.5.55,1.1,1.05,1.81,1.41,0,0,.01,0,.02.01.1.04.19.09.29.13.02.01.05.02.07.03.48.17.91.52,1.26.94,1.03,1.21,1.36,2.88,1.03,4.44l-.16.7s.78-1.16.88-2.87c.04-.68-.1-1.36-.3-2.01-.12-.38-.16-.82.28-.82.12,0,.28.03.48.11.66.26,1.2.76,1.57,1.36.48.76,1.41,1.92,2.87,2.27,1.87.46,3.12-.47,3.56-.88,2.54,2.22,6.53,3.36,12-1.8,0,0,4.38,9.78,11.04,3.15.98,6.79.45,14.38.45,14.38,2.76-18.4-1.42-27.39-3.04-30.07h0c-.05-.22-.1-.42-.16-.64,0,0,11.85,2.38,23.86-6.47,0,0,4.56,19.43,1.61,33.57,0,0,1.03-.87,2.54-2.56,4.24-4.72,7.26-10.33,8.92-16.36.09-.32.18-.64.26-.97.02-.08.04-.16.06-.24.85-3.51,1.26-7.15,1.19-10.82-.02-1.08-.06-2.19-.14-3.3-.16-2.32.33-3.24,1-3.47-.74,2.46-1.37,7.12,4.41,7.4,7.87.38,7.24,1.4,7.24,1.4,0,0-2.54,6.73,2.41,5.96,0,0,3.17-1.32,4.92-.54.32.14.59.35.78.65.17.25.29.57.33.97,0,0,.11-.67-.11-1.44-.09-.37-.26-.76-.57-1.12h0c-.61-.77-1.77-1.35-3.89-1.2,0,0-1.14.14-.19-.95,0,0,2.86-3.52,1.52-5,0,0-.91-1.08-2.5-2.18,2.44-.13,5.03-.79,7.52-2.37.34-.22.68-.45,1.01-.7.38-.28.75-.58,1.12-.91,1.25.77,2.42,1.38,3.03,1.84,1.76,1.33-.34,4.28-.34,4.28-.42,2.48,3.67,1.95,3.67,1.95,0,0-2.14-1.38-.09-4.52,2.04-3.14-1.43-5.67-2.58-6.52-.29-.22-.43-.45-.48-.68-.16-.7.48-1.37.48-1.37,0,0,.15.05.41.12,1.22.32,5.02,1.13,8.55-.3h0c2.75,2.28,4.22.1,4.22.1-.76-.35-.93-.95-.86-1.55.14-1.06,1.02-1.87,2.08-2.04,1.61-.27,4.5-.99,6.76-2.94,3.3-2.86,5.15.76,5.15.76,0,0,.58-3.4-2.12-4.1-1.73-.44-4,.53-6.59,1.97-.95.54-2.14.2-2.69-.75-.03-.05-.05-.1-.08-.15-.48-1.03.23-2.23,1.34-2.47.38-.09.74-.19,1.09-.3,4.85-1.56,5.39-7.59,2.18-10.54.02.01.05.02.09.02,1.42.26,2.69-.07,3.7-.63.54-.3,1-.66,1.37-1.03.01-.02.02-.03.04-.04.18-.2.36-.42.53-.67.08-.12.16-.23.23-.34.01,0,.02-.02.02-.03,1.94-2.99-.56-2.83-.57-2.83.02,0,.06.04.07.05.06.05.11.1.16.15.14.13.26.29.32.47.09.29-.11.52-.36.64-.35.18-.82.02-.95-.36-.05-.15-.05-.32-.03-.48.04-.35.06-.57.08-.71.03-.23.04-.24.04-.24.06-.24.14-.49.22-.73.48-1.36,1.39-2.51,2.5-3.44.84-.71,1.78-1.88,1.7-3.54-.1-1.99-2.28-2.54-3.75-2.68.32-.43.82-.73,1.33-.9Zm-41.06,19.86c-.28.52-.76,1.18-1.56,1.98-.04.04-.08.09-.13.13-.28.28-.6.58-.97.89l-.21.18s-.1.09-.16.13c-2.74,2.28-5.21,1.77-6.91.82-.5.3-.98.64-1.45,1.02-1.19,2.77-3.46,7.31-6.87,10.8-.02.02-.03.03-.05.05-.45.45-.92.9-1.42,1.31l-.05.05c-6.3,5.27-20.6,13.64-36.17,11.4,0,0-.35-.01-.98-.21-.23-.08-.49-.18-.78-.31-.05-.02-.11-.05-.16-.07-3.31-1.63-10.37-7.59-16.87-29.6-.05-.17-.09-.34-.13-.51-.05-.22-.08-.44-.11-.67-.02-.13-.03-.25-.03-.38-.08-.88-.04-1.77.01-2.65.09-1.71.25-4.32.53-7.12.08-.78.17-1.58.26-2.38.07-.6.15-1.19.24-1.78.05-.35.1-.7.15-1.04.1-.63.2-1.34.31-2.11.18-1.36.38-2.9.57-4.52.09-.7.17-1.41.25-2.12-3.38.66-6.26,2.4-7.2,3.02-.09.07-.22-.03-.17-.14.53-1.06,2.53-3.86,7.65-5.37.35-3.08.66-6.02.87-8.03,2.35-1.27,5.2-3.64,5.56-7.77,0,0,6.09,1.44,8.82-5.45,0,0,3.32,3.25,8.54-.5.21.3.43.59.68.88,1.64,1.96,4.06,3.64,7.61,4.52,0,0,3.04,14.6,17.39,17.65,0,0-.89,9.27,5.34,12.57,0,0-.04.6.06,1.5-1.88,3.24-3.22,7.23-1.34,10.54.42.75,1.06,1.37,1.85,1.71,1.14.5,2.82.56,4.13-2.18,0,0-1.93,2.22-3.44,1.31,0,0-3.43-2.11-.18-7.94.81,1.59,2.22,3.17,4.67,4.05.01,0,.03.01.04.01.13,0,.31.1.43.14.16.04.31.09.47.13.61.15,1.25.18,1.87.29.66.12,1.38.26,1.99.57.46.21.99.47,1.15,1,.02.04.02.08.03.12.09.69-.16,1.39-.6,1.91-.45.53-1.09.89-1.79.93-.1,0-.21,0-.31,0-.21-.02-.4-.04-.56.1-.16.14-.17.36-.13.55.13.67,2.08,2.5,4.8,1.57,2.71-.93,2.44-2.53,2.44-2.53,0,0-.07-.74.79-.7,1.09.04,1.73,1.28,1.23,2.25Z"/>
    <path class="cls-1" d="m102.33,72.12s0,.01.01,0h-.01s0,0,0,0Z"/>
    <path class="cls-1" d="m104.6,71.28c-.04.05-.06.07-.06.07.01-.02.02-.04.02-.06.01,0,.02,0,.04-.01Z"/>
    <g>
      <path class="cls-1" d="m106.56,65.83c-1.48-.92-7.47-4.31-12.73-2.59-4.29,1.4-5.97.4-6.59-.31-.27-.31-.39-.68-.35-1.06.11-1.09,1.11-2.79,8.32-2.06,7.97.81,10.87,4.62,11.53,5.89.05.1-.08.19-.18.13Z"/>
      <path class="cls-1" d="m73.23,63.94c-.6.72-2.27,1.76-6.59.44-.21-.06-.42-.12-.63-.17-1.63-.37-3.3-.29-4.85.02-3.36.66-6.23,2.38-7.18,3.01-.1.06-.23-.02-.19-.12.52-1.06,2.52-3.87,7.65-5.38,1.1-.32,2.34-.59,3.75-.76,1.52-.19,2.76-.26,3.78-.25,3.81.05,4.47,1.29,4.58,2.14.05.38-.06.76-.32,1.07Z"/>
      <path class="cls-1" d="m77.28,78.18c-.18,1.35-.55,2.65-1.08,3.89-.41.99-.92,1.94-1.5,2.85-1.08,1.56-.63,2.91,1.14,4.23-2.26-.09-3.91-2.35-2.97-4.53.97-2.26,2.1-4.47,2.89-6.79.44-1.31.81-2.6.87-4.09.77,1.31.85,2.96.65,4.44Z"/>
      <path class="cls-1" d="m89.99,99.71l-.3.3c-.59.59-1.33.99-2.16,1.15-.39.08-.78.11-1.17.11-.44,0-.88-.04-1.31-.14l-3.63-1.17c-.85-.28-1.77-.34-2.65-.19-.65.11-1.31.1-1.95-.02l-.36-.07c-.67-.12-1.36-.14-2.03-.05l-4.02.52c-.06.01-.11,0-.15-.06-.04-.04-.05-.11-.02-.16l.38-.99c.48-1.23,1.29-2.29,2.34-3.08.82-.61,1.9-.81,2.89-.53l.91.26c.42.12.85.11,1.26-.03l.63-.22c1.34-.46,2.84-.37,4.12.26.72.36,1.38.84,1.96,1.41l1.18,1.17c.3.3.65.55,1.02.75l.19.1c.6.31,1.27.46,1.94.43l.8-.04s.13.04.16.1c.03.06.01.14-.03.19Z"/>
      <path class="cls-1" d="m87.32,102.05l-1.79,1.85c-1.08,1.12-2.41,2.01-3.86,2.57-1.12.44-2.3.67-3.51.67-1.13,0-2.24-.31-3.22-.9-1.69-1.02-3.11-2.45-4.1-4.15l-.59-1.02c-.04-.06-.03-.13.01-.18.05-.06.12-.08.18-.06l4.09,1.4c1.15.4,2.36.57,3.58.59,1.06-.01,2.14-.09,3.2-.23l5.87-.82c.06-.01.13.02.17.09.03.06.02.14-.03.19Z"/>
      <path class="cls-1" d="m107.02,67.51s-.32,3.16-1.88,5.31c-.02.03-.04.05-.06.08-1.31,2-3.94,4.55-8.88,4.72-4.42.15-6.99-1.45-8.42-2.97-.78-.82-.08-2.14,1.03-1.95,2.43.44,6.25.84,10.36.16,0,0,2.5-.75,2.78-2.75,0,0,.46,1.17.38,2.01h0s0,.01.01,0c.14-.15,1.53-1.66,2.26-3.35,0,0,.24,1.88-.04,2.52,0,.02,0,.04-.02.06,0,0,.02-.02.06-.07.3-.39,1.78-2.29,2.42-3.77Z"/>
      <path class="cls-1" d="m73.41,75.11c-1.21,1.88-3.75,4.32-8.8,4.32-2.13,0-3.85-.5-5.23-1.24.08-.78.17-1.58.26-2.38.07-.6.15-1.19.24-1.78.05-.35.1-.7.15-1.04.1-.63.2-1.34.31-2.11.18-1.36.38-2.9.57-4.52.01.59.06,1.98.32,3.47.33,1.93,1.01,4.02,2.39,4.68,0,0,.01,0,.01.01,3.65.18,6.86-.45,8.81-.97.81-.21,1.45.81.97,1.56Z"/>
    </g>
  </g>
</svg>